<?xml version="1.0" encoding="utf-8"?>
<!-- Generator: Adobe Illustrator 16.0.4, SVG Export Plug-In . SVG Version: 6.00 Build 0)  -->
<!DOCTYPE svg PUBLIC "-//W3C//DTD SVG 1.1//EN" "http://www.w3.org/Graphics/SVG/1.1/DTD/svg11.dtd">
<svg version="1.1" id="Layer_1" xmlns:sketch="http://www.bohemiancoding.com/sketch/ns"
	 xmlns="http://www.w3.org/2000/svg" xmlns:xlink="http://www.w3.org/1999/xlink" x="0px" y="0px" width="1440px" height="250px"
	 viewBox="0 0 1440 250" enable-background="new 0 0 1440 250" xml:space="preserve">
    <title>platform doc hero</title>
    <desc>Created with Sketch.</desc>
    <defs>
        <linearGradient x1="3.35464634%" y1="-2.5139548%" x2="98.3980491%" y2="55.4674047%" id="linearGradient-1">
            <stop stop-color="#0D4A7C" offset="0%"></stop>
            <stop stop-color="#377282" offset="100%"></stop>
        </linearGradient>
        <linearGradient x1="29.9444525%" y1="16.6782826%" x2="90.8329901%" y2="87.4530642%" id="linearGradient-2">
            <stop stop-color="#C6DEDE" offset="0%"></stop>
            <stop stop-color="#F5ECBC" offset="100%"></stop>
        </linearGradient>
        <linearGradient x1="88.3510605%" y1="8.41694192%" x2="41.9368172%" y2="90.9999902%" id="linearGradient-3">
            <stop stop-color="#2E8D9D" offset="0%"></stop>
            <stop stop-color="#166494" offset="100%"></stop>
        </linearGradient>
    </defs>
    <g id="Page-1" stroke="none" stroke-width="1" fill="none" fill-rule="evenodd" sketch:type="MSPage">
        <g id="platform-doc-hero" sketch:type="MSArtboardGroup">
            <g id="Group" sketch:type="MSLayerGroup" transform="translate(-637.000000, -700.000000)">
                <rect id="Rectangle-67" fill="url(#linearGradient-1)" sketch:type="MSShapeGroup" x="637.142311" y="699.914015" width="1440" height="487.744309"></rect>
                <path d="M1698.24738,1189.99554 C2008.61803,1094.89796 2095.00322,849.635059 2095.00322,849.635059 L2174.70492,852.739065 L2175.77227,1192.50533" id="Path-251-Copy-5" opacity="0.198810634" fill="#0A5C8F" sketch:type="MSShapeGroup"></path>
                <path d="M1698.24738,1251.0738 C1735.81658,1251.0738 2110.37134,811.880345 2110.37134,811.880345 L2181.76835,806.863609 L2180.07325,1250.7198 L2223.47962,882.277266" id="Path-251" opacity="0.156833022" fill="url(#linearGradient-2)" sketch:type="MSShapeGroup"></path>
                <path d="M6.12207972,922.698055 C13.3000797,806.060055 100.33008,720.825055 159.48408,750.079055 C180.63408,760.539055 193.34308,768.565055 231.26108,785.968055 C265.94108,801.884055 323.69008,814.970055 342.51608,793.145055 C363.68608,768.603055 321.86008,715.793055 342.51608,696.246055 C363.68408,676.215055 377.82208,703.801055 425.06008,699.835055 C433.35908,699.138055 478.06108,694.693055 514.78108,663.946055 C552.48108,632.380055 545.76508,603.237055 575.79208,592.169055 C601.69008,582.624055 635.73408,593.596055 654.74708,613.702055 C680.25008,640.673055 663.72908,668.239055 679.86908,721.368055 C684.06908,735.193055 706.01708,807.446055 762.41308,829.034055 C826.25108,853.470055 897.39508,798.887055 909.55608,789.556055 C950.57208,758.088055 943.71308,739.449055 1002.86608,674.713055 C1045.37108,628.197055 1065.84808,601.445055 1099.76608,595.758055 C1183.26908,581.756055 1190.59208,636.414055 1243.32008,620.880055 C1345.66508,590.728055 1330.03308,662.495055 1372.58108,667.889055 C1436.28308,675.964055 1419.74108,638.289055 1516.07408,570.636055 C1610.40108,504.391055 1601.11108,503.547055 1630.91708,488.092055 C1650.92908,477.716055 1729.76408,439.392055 1828.30408,448.615055 C1860.99508,451.674055 1929.19108,458.057055 1996.98108,498.859055 C2020.78508,513.186055 2044.64608,531.822055 2079.52508,531.158055 C2109.92908,530.580055 2167.90908,504.813055 2148.67208,492.975055" id="Stroke-1" stroke="url(#linearGradient-3)" sketch:type="MSShapeGroup" transform="translate(1079.311097, 684.946497) rotate(26.000000) translate(-1079.311097, -684.946497) "></path>
                <path d="M4.81566333,923.093258 C21.6436633,822.139258 107.336663,747.107258 166.894663,772.123258 C188.512663,781.204258 202.168663,788.387258 238.483663,802.540258 C273.342663,816.126258 328.399663,825.464258 348.016663,804.386258 C370.436663,780.473258 335.924663,731.401258 356.392663,712.722258 C365.304663,704.602258 372.944663,704.400258 382.160663,706.327258 C395.928663,709.206258 412.304663,711.373258 437.360663,716.611258 C443.986663,717.997258 468.062663,717.043258 494.709663,705.489258 C504.374663,701.299258 514.957663,695.981258 525.570663,687.977258 C561.836663,660.625258 558.024663,632.975258 589.047663,621.414258 C615.453663,611.582258 647.620663,620.697258 666.883663,636.953258 C692.342663,658.438258 680.787663,680.049258 697.233663,723.544258 C697.871663,725.232258 698.426663,727.018258 699.346663,728.676258 C706.670663,741.874258 731.600663,807.506258 785.238663,829.169258 C849.023663,854.931258 912.563663,812.059258 928.393663,804.446258 C970.921663,783.994258 966.679663,763.425258 1026.48966,705.154258 C1069.98966,662.773258 1092.83266,636.399258 1125.63266,628.759258 C1137.47966,626.000258 1147.57366,624.568258 1156.25766,624.246258 C1209.21766,622.287258 1219.14866,652.120258 1261.65366,636.496258 C1281.11666,629.341258 1296.51466,626.065258 1309.31566,625.454258 C1356.40966,623.206258 1355.98966,665.070258 1387.82366,665.193258 C1434.76666,665.376258 1432.47866,643.402258 1474.16366,600.712258 C1486.05966,588.528258 1502.48666,579.641258 1523.23466,567.850258 C1613.59566,516.495258 1607.74766,514.978258 1639.58666,497.000258 C1656.24366,487.595258 1714.13366,458.639258 1786.06466,455.008258 C1802.75066,454.166258 1819.83366,454.406258 1837.18066,456.119258 C1871.78566,459.537258 1923.18466,467.282258 1981.60866,498.368258 C1989.13766,502.374258 1996.66166,506.598258 2004.19766,510.972258 C2029.10266,525.427258 2053.74466,540.340258 2086.50966,536.706258 C2115.33866,533.509258 2167.04966,506.511258 2147.36566,493.370258" id="Stroke-3" stroke="url(#linearGradient-3)" sketch:type="MSShapeGroup" transform="translate(1078.270056, 688.815494) rotate(26.000000) translate(-1078.270056, -688.815494) "></path>
                <path d="M3.45594343,923.492523 C29.9339434,838.222523 114.342943,773.343523 174.252943,794.172523 C196.356943,801.857523 211.064943,808.089523 245.652943,819.117523 C280.805943,830.326523 332.989943,835.897523 353.462943,815.630523 C377.059943,792.271523 349.935943,747.013523 370.214943,729.202523 C379.094943,721.428523 386.712943,720.924523 395.652943,722.270523 C410.301943,724.476523 426.017943,729.460523 449.606943,733.391523 C457.214943,734.659523 479.553943,737.247523 505.348943,727.369523 C514.413943,723.898523 524.985943,719.676523 536.306943,712.011523 C570.840943,688.629523 570.230943,662.717523 602.248943,650.663523 C629.163943,640.545523 659.657943,647.812523 678.966943,660.208523 C705.600943,677.307523 696.789943,694.019523 716.202943,731.503523 C716.973943,732.992523 717.884943,734.457523 718.770943,735.988523 C731.910943,746.876523 757.113943,807.633523 808.010943,829.308523 C864.626943,853.420523 913.568943,827.545523 938.819943,820.827523 C946.528943,818.776523 953.835943,815.434523 960.510943,811.066523 C986.526943,794.042523 997.758943,780.487523 1050.05894,735.599523 C1094.60994,697.363523 1119.77394,671.300523 1151.44694,661.765523 C1163.16594,658.237523 1172.95194,655.965523 1181.10194,654.936523 C1232.17894,648.485523 1240.04694,670.147523 1279.93394,652.115523 C1297.68694,644.089523 1312.31294,639.433523 1325.34594,637.151523 C1370.88594,629.175523 1373.06494,666.996523 1403.01194,662.502523 C1446.92594,655.911523 1441.71394,634.296523 1480.80294,591.276523 C1492.35994,578.557523 1509.36694,574.121523 1530.34194,565.068523 C1615.61194,528.261523 1614.34994,526.464523 1648.20294,505.912523 C1665.10794,495.649523 1724.83394,465.093523 1794.65194,462.216523 C1811.84994,461.507523 1828.97694,461.874523 1846.00294,463.628523 C1886.15294,467.763523 1931.81994,477.947523 1988.74394,510.249523 C1996.30794,514.542523 2003.82594,518.869523 2011.36094,523.089523 C2037.37894,537.659523 2062.81994,548.822523 2093.44094,542.258523 C2120.72594,536.410523 2166.13694,508.213523 2146.00594,493.769523" id="Stroke-5" stroke="url(#linearGradient-3)" sketch:type="MSShapeGroup" transform="translate(1077.229146, 692.684530) rotate(26.000000) translate(-1077.229146, -692.684530) "></path>
                <path d="M2.08633217,923.640915 C38.2143322,854.054915 121.384332,799.268915 181.600332,815.969915 C204.207332,822.239915 220.066332,827.388915 252.812332,835.443915 C288.372332,844.190915 337.622332,846.124915 358.900332,826.624915 C383.729332,803.869915 363.937332,762.374915 384.028332,745.431915 C392.875332,738.002915 400.490332,737.142915 409.135332,737.962915 C424.696332,739.439915 440.282332,744.060915 461.844332,749.920915 C470.356332,752.234915 491.001332,757.174915 515.977332,748.998915 C524.430332,746.231915 534.947332,743.100915 547.033332,735.794915 C579.573332,716.124915 582.427332,692.208915 615.441332,679.661915 C642.864332,669.257915 671.939332,674.589915 691.040332,683.212915 C719.191332,695.920915 713.038332,707.816915 735.161332,739.211915 C736.075332,740.508915 737.154332,741.733915 738.186332,743.049915 C755.795332,752.468915 782.596332,807.570915 830.773332,829.197915 C887.032332,854.452915 929.072332,836.234915 956.087332,833.931915 C964.152332,833.243915 972.016332,831.040915 979.260332,827.426915 C1004.98433,814.594915 1021.15533,804.939915 1073.61933,765.793915 C1119.27733,731.726915 1146.70433,705.893915 1177.25133,694.519915 C1188.84333,690.203915 1198.33033,687.084915 1205.93633,685.374915 C1255.20633,674.293915 1260.91433,688.032915 1298.20333,667.484915 C1314.24533,658.644915 1328.07433,652.637915 1341.36633,648.597915 C1385.27933,635.250915 1390.10833,668.485915 1418.19133,659.560915 C1459.04233,646.576915 1450.88733,624.873915 1487.43233,581.590915 C1498.63833,568.318915 1515.88033,568.364915 1537.44033,562.034915 C1616.30633,538.879915 1620.96433,537.743915 1656.80933,514.573915 C1673.97433,503.478915 1735.52833,471.340915 1803.22933,469.172915 C1820.93933,468.605915 1838.10933,469.105915 1854.81633,470.885915 C1900.50933,475.755915 1940.42333,488.415915 1995.86933,521.880915 C2003.46633,526.465915 2010.98233,530.884915 2018.51333,534.955915 C2045.65433,549.624915 2071.90533,556.999915 2100.36333,547.559915 C2126.12233,539.015915 2163.90433,508.269915 2143.32733,492.522915" id="Stroke-7" stroke="url(#linearGradient-3)" sketch:type="MSShapeGroup" transform="translate(1075.659940, 696.295849) rotate(26.000000) translate(-1075.659940, -696.295849) "></path>
                <path d="M0.554337391,924.105367 C46.3323374,870.203367 128.294337,825.443367 188.785337,838.084367 C211.906337,842.915367 229.000337,846.828367 259.808337,852.086367 C295.874337,858.241367 342.101337,856.677367 364.175337,837.934367 C390.249337,815.794367 377.777337,778.052367 397.679337,761.977367 C406.493337,754.894367 414.123337,754.438367 422.455337,753.971367 C438.935337,753.047367 454.320337,759.476367 473.919337,766.766367 C483.327337,770.266367 502.247337,777.379367 526.444337,770.944367 C534.271337,768.862367 544.688337,766.798367 557.597337,759.895367 C587.923337,743.675367 594.461337,722.016367 628.471337,708.976367 C656.402337,698.286367 684.296337,701.480367 702.951337,706.533367 C732.958337,714.660367 729.460337,721.906367 753.958337,747.236367 C755.026337,748.341367 756.261337,749.327367 757.438337,750.427367 C779.517337,758.377367 807.895337,807.884367 853.373337,829.402367 C904.476337,853.582367 938.358337,846.667367 965.645337,846.923367 C981.533337,847.073367 997.333337,844.515367 1012.35234,839.332367 C1032.66834,832.320367 1054.57334,823.368367 1097.01634,796.305367 C1143.84234,766.446367 1173.46134,740.747367 1202.89334,727.591367 C1214.35534,722.467367 1223.55034,718.490367 1230.60834,716.129367 C1278.10334,700.242367 1281.63134,706.362367 1316.31134,683.170367 C1330.65234,673.579367 1343.68034,666.246367 1357.22434,660.359367 C1399.54834,641.963367 1406.98534,670.335367 1433.20834,656.934367 C1470.99234,637.625367 1459.84234,615.709367 1493.89934,572.221367 C1504.73934,558.379367 1521.62434,558.428367 1544.37534,559.318367 C1612.19434,534.945367 1627.43834,549.378367 1665.25334,523.551367 C1682.68934,511.643367 1746.06334,477.946367 1811.64434,476.446367 C1829.86734,476.029367 1847.07834,476.660367 1863.46634,478.460367 C1914.70034,484.085367 1948.83834,499.249367 2002.83234,533.827367 C2010.45934,538.711367 2017.98034,543.211367 2025.50434,547.138367 C2053.77734,561.891367 2080.83234,565.429367 2107.12234,553.177367 C2131.36034,541.882367 2163.03434,510.018367 2142.01034,492.967367" id="Stroke-9" stroke="url(#linearGradient-3)" sketch:type="MSShapeGroup" transform="translate(1074.719869, 700.214113) rotate(26.000000) translate(-1074.719869, -700.214113) "></path>
                <path d="M-1.1366289,924.741028 C54.2923711,886.523028 135.065371,851.719028 195.811371,860.369028 C219.454371,863.735028 237.840371,866.245028 266.646371,868.900028 C303.290371,872.276028 346.430371,867.411028 369.291371,849.415028 C396.620371,827.902028 391.457371,793.900028 411.170371,778.693028 C419.952371,771.956028 427.633371,771.008028 435.616371,770.151028 C452.946371,768.290028 468.075371,775.384028 485.835371,783.784028 C496.078371,788.628028 513.298371,797.696028 536.751371,793.060028 C543.940371,791.639028 554.213371,790.595028 568.002371,784.166028 C595.938371,771.140028 606.336371,751.995028 641.341371,738.461028 C669.781371,727.486028 696.685371,732.214028 714.703371,730.025028 C746.705371,726.136028 746.064371,735.989028 772.595371,755.432028 C773.832371,756.339028 775.209371,757.091028 776.531371,757.977028 C803.081371,764.457028 833.010371,808.426028 875.814371,829.778028 C928.139371,855.881028 956.638371,854.296028 984.867371,859.508028 C998.351371,861.998028 1012.17837,861.978028 1025.70537,859.736028 C1048.50937,855.958028 1074.11137,851.562028 1120.25537,826.987028 C1168.30137,801.398028 1200.04037,775.722028 1228.37637,760.833028 C1239.70037,754.883028 1248.60537,750.036028 1255.12237,747.055028 C1300.80937,726.161028 1302.24637,725.004028 1334.26037,699.026028 C1346.92737,688.747028 1359.16737,680.106028 1372.92337,672.293028 C1413.77637,649.091028 1423.72137,672.399028 1448.06537,654.480028 C1482.80837,628.907028 1468.57837,606.663028 1500.20737,563.023028 C1510.66337,548.596028 1527.91937,552.004028 1551.15137,556.773028 C1612.34337,542.868028 1633.77737,561.216028 1673.53837,532.700028 C1691.25637,519.993028 1756.44037,484.760028 1819.90037,483.890028 C1838.63537,483.634028 1855.88737,484.393028 1871.95837,486.205028 C1928.73137,492.606028 1957.06837,510.298028 2009.63637,545.945028 C2017.28837,551.134028 2024.82037,555.704028 2032.33637,559.492028 C2061.74937,574.313028 2089.58037,573.966028 2113.72337,558.966028 C2136.42337,544.862028 2162.88437,513.372028 2141.41337,495.018028" id="Stroke-11" stroke="url(#linearGradient-3)" sketch:type="MSShapeGroup" transform="translate(1074.106052, 704.291354) rotate(26.000000) translate(-1074.106052, -704.291354) "></path>
                <path d="M-2.89720163,924.972592 C62.1817984,902.438592 141.770798,877.521592 202.768798,882.249592 C226.933798,884.123592 246.795798,888.261592 273.414798,885.308592 C310.438798,881.201592 350.697798,877.750592 374.336798,860.492592 C402.929798,839.617592 405.067798,809.344592 424.592798,795.005592 C433.341798,788.614592 440.985798,786.415592 448.706798,785.926592 C467.066798,784.764592 481.606798,791.074592 497.681798,800.396592 C508.646798,806.754592 524.250798,817.519592 546.988798,814.772592 C553.530798,813.982592 563.611798,813.872592 578.336798,808.032592 C603.759798,797.951592 618.141798,781.569592 654.142798,767.542592 C683.090798,756.281592 709.461798,757.639592 726.385798,753.111592 C759.460798,744.263592 762.823798,749.348592 791.163798,763.223592 C792.579798,763.917592 794.010798,764.652592 795.555798,765.121592 C825.624798,774.240592 858.028798,808.616592 898.185798,829.749592 C952.324798,858.241592 974.747798,862.245592 1005.1668,872.774592 C1015.6848,876.415592 1026.7448,878.233592 1037.8738,878.120592 C1062.7798,877.867592 1093.0628,878.955592 1143.4248,857.264592 C1192.7348,836.025592 1226.5228,810.249592 1253.7898,793.671592 C1264.9638,786.876592 1273.5768,781.148592 1279.5658,777.577592 C1323.3428,751.474592 1322.9028,743.381592 1352.1398,714.478592 C1363.1778,703.566592 1374.6408,693.622592 1388.5528,683.822592 C1428.0918,655.970592 1440.4208,674.086592 1462.8538,651.620592 C1494.6028,619.824592 1477.1828,597.171592 1506.4468,553.419592 C1516.4968,538.393592 1534.1448,545.175592 1557.8588,553.823592 C1612.4228,550.385592 1640.0698,572.678592 1681.7538,541.444592 C1699.7638,527.949592 1766.7478,490.572592 1828.0868,490.930592 C1847.3358,491.042592 1864.6268,491.726592 1880.3798,493.546592 C1942.6898,500.744592 1965.1998,520.982592 2016.3708,557.658592 C2024.0448,563.158592 2031.5938,567.789592 2039.0988,571.441592 C2069.6598,586.312592 2098.2198,582.044592 2120.2538,564.350592 C2141.3788,547.386592 2160.3258,512.492592 2138.4078,492.835592" id="Stroke-13" stroke="url(#linearGradient-3)" sketch:type="MSShapeGroup" transform="translate(1072.633909, 707.950315) rotate(26.000000) translate(-1072.633909, -707.950315) "></path>
                <path d="M-3.29942092,925.267241 C71.4295791,918.417241 149.591579,905.092241 210.847579,905.967241 C235.533579,906.320241 256.520579,905.514241 281.305579,903.554241 C319.123579,900.565241 356.092579,889.937241 380.505579,873.405241 C410.369579,853.183241 419.801579,826.625241 439.137579,813.154241 C447.853579,807.108241 455.497579,804.396241 462.921579,803.539241 C482.190579,801.314241 496.088579,808.686241 510.650579,818.845241 C522.179579,826.888241 536.426579,840.667241 558.349579,838.321241 C564.210579,837.694241 574.078579,838.810241 589.795579,833.736241 C612.638579,826.361241 631.069579,812.980241 668.066579,798.460241 C697.522579,786.913241 722.163579,782.039241 739.190579,778.035241 C775.163579,769.578241 780.725579,764.180241 810.854579,772.852241 C812.451579,773.311241 814.054579,773.789241 815.701579,774.102241 C850.742579,780.749241 884.139579,810.695241 921.679579,831.558241 C984.713579,866.589241 993.502579,883.122241 1040.90958,895.360241 C1066.61458,901.995241 1105.54558,910.009241 1167.71658,889.378241 C1218.31558,872.587241 1254.09458,846.579241 1280.32558,828.345241 C1291.33758,820.691241 1299.64758,814.076241 1305.13258,809.935241 C1346.82658,778.451241 1344.84858,763.714241 1371.14158,731.767241 C1380.60958,720.262241 1391.30058,709.015241 1405.30458,697.188241 C1443.69658,664.764241 1458.28158,677.621241 1478.76458,650.598241 C1507.57358,612.590241 1486.84558,589.482241 1513.80758,545.653241 C1523.42858,530.014241 1539.75558,544.355241 1565.68758,552.710241 C1611.80358,567.568241 1647.50758,586.001241 1691.09158,552.025241 C1709.40158,537.752241 1778.17658,499.516241 1837.39558,499.807241 C1857.15758,499.904241 1874.48858,500.899241 1889.92458,502.723241 C1957.76758,510.743241 1974.42358,533.537241 2024.22858,571.209241 C2031.91858,577.025241 2039.49158,581.706241 2046.98358,585.227241 C2078.70158,600.131241 2107.92658,591.925241 2127.90758,571.571241 C2147.40358,551.711241 2159.87458,513.630241 2137.51058,492.670241" id="Stroke-15" stroke="url(#linearGradient-3)" sketch:type="MSShapeGroup" transform="translate(1073.070932, 708.968741) rotate(26.000000) translate(-1073.070932, -708.968741) "></path>
                <path d="M-4.93738862,925.542974 C79.4416114,934.376974 155.843611,932.312974 217.379611,929.394974 C242.577611,928.199974 264.772611,925.512974 287.649611,921.510974 C325.907611,914.817974 359.970611,901.884974 385.127611,886.029974 C416.299611,866.521974 432.987611,843.616974 452.134611,831.013974 C460.817611,825.313974 468.448611,822.062974 475.587611,820.861974 C495.733611,817.471974 508.839611,826.012974 522.072611,837.004974 C533.968611,846.886974 546.856611,860.118974 568.162611,861.579974 C573.410611,861.939974 582.956611,863.193974 599.705611,859.149974 C619.978611,854.255974 642.449611,844.101974 680.442611,829.088974 C710.407611,817.255974 733.659611,809.356974 750.448611,802.669974 C787.830611,787.780974 796.910611,778.428974 828.997611,782.189974 C830.769611,782.397974 832.533611,782.626974 834.300611,782.793974 C874.136611,786.549974 908.669611,812.530974 943.626611,833.076974 C1006.36961,869.953974 1007.60761,891.831974 1058.86861,911.632974 C1082.52461,920.770974 1128.03061,935.920974 1190.46061,921.202974 C1242.34961,908.969974 1280.08261,882.592974 1305.31361,862.730974 C1316.14561,854.202974 1324.14461,846.704974 1329.15161,842.003974 C1368.54261,805.019974 1365.46361,783.835974 1388.59561,748.765974 C1396.56261,736.686974 1406.47361,724.140974 1420.50961,710.263974 C1457.90761,673.291974 1474.62761,680.860974 1493.12761,649.286974 C1519.04161,605.058974 1494.89461,581.479974 1519.62161,537.597974 C1528.78561,521.334974 1545.87661,537.264974 1571.96961,551.307974 C1611.47561,572.567974 1653.41861,599.055974 1698.88261,562.316974 C1717.49961,547.271974 1788.05661,507.567974 1845.15761,508.393974 C1865.43161,508.686974 1882.79961,509.803974 1897.92161,511.611974 C1971.28361,520.569974 1982.06861,545.833974 2030.53861,584.469974 C2038.23961,590.608974 2045.84261,595.330974 2053.32161,598.722974 C2086.20361,613.640974 2116.02661,601.504974 2134.01261,578.502974 C2151.81961,555.730974 2159.17861,515.669974 2136.36761,493.405974" id="Stroke-17" stroke="url(#linearGradient-3)" sketch:type="MSShapeGroup" transform="translate(1072.849113, 712.654016) rotate(26.000000) translate(-1072.849113, -712.654016) "></path>
                <path d="M-8.89370565,924.758358 C324.870294,1011.78836 428.993294,842.539358 485.518294,829.978358 C527.403294,820.670358 534.213294,868.867358 575.239294,876.633358 C584.506294,878.387358 612.153294,882.505358 690.083294,851.511358 C790.315294,811.648358 795.110294,784.741358 844.404294,783.323358 C891.514294,781.967358 929.037294,805.338358 962.836294,826.389358 C1025.20029,865.231358 1020.16729,891.186358 1074.09129,919.699358 C1096.39029,931.490358 1147.73929,953.748358 1210.46829,944.821358 C1286.91029,933.943358 1335.48029,883.126358 1350.43329,865.866358 C1399.49929,809.236358 1376.67429,779.145358 1432.97729,715.134358 C1469.51329,673.596358 1488.25929,675.882358 1504.75429,639.768358 C1527.80529,589.302358 1500.14229,565.259358 1522.69929,521.336358 C1543.33829,481.146358 1622.29029,632.590358 1703.93629,564.402358 C1722.86829,548.591358 1795.19729,507.441358 1850.18229,508.775358 C1981.74629,511.966358 1978.09629,542.523358 2034.11129,589.524358 C2112.16929,655.021358 2183.50029,544.943358 2131.90829,492.668358" id="Stroke-19" stroke="url(#linearGradient-3)" sketch:type="MSShapeGroup" transform="translate(1070.265046, 721.099814) rotate(26.000000) translate(-1070.265046, -721.099814) "></path>
                <path d="M1461.61055,1223.76447 C1499.16954,1223.76447 1985.05963,759.855469 1985.05963,759.855469 L2148.11042,759.855469 L2148.11042,1223.76447" id="Path-251" opacity="0.156833022" fill="#76B7A6" sketch:type="MSShapeGroup"></path>
            </g>
        </g>
    </g>
</svg>